<mxfile host="app.diagrams.net" modified="2022-12-27T15:06:25.175Z" agent="5.0 (Windows NT 10.0; Win64; x64) AppleWebKit/537.36 (KHTML, like Gecko) Chrome/107.0.0.0 Safari/537.36 OPR/93.0.0.0 (Edition Yx GX)" etag="iM3kHYqsLQHZ1MIqYLHy" version="20.7.4" type="github" pages="3">
  <diagram id="OmgoiXetUjNexwZ1-d2X" name="Страница 2">
    <mxGraphModel dx="989" dy="577" grid="1" gridSize="10" guides="1" tooltips="1" connect="1" arrows="1" fold="1" page="1" pageScale="1" pageWidth="827" pageHeight="1169" math="0" shadow="0">
      <root>
        <mxCell id="0" />
        <mxCell id="1" parent="0" />
        <mxCell id="YZ7Jb5GtQvPE0JwR_sXS-1" value="" style="endArrow=classic;html=1;rounded=0;" edge="1" parent="1">
          <mxGeometry width="50" height="50" relative="1" as="geometry">
            <mxPoint x="360" y="90" as="sourcePoint" />
            <mxPoint x="360.5" y="240" as="targetPoint" />
          </mxGeometry>
        </mxCell>
        <mxCell id="YZ7Jb5GtQvPE0JwR_sXS-2" value="" style="rounded=0;whiteSpace=wrap;html=1;" vertex="1" parent="1">
          <mxGeometry x="240" y="240" width="252" height="160" as="geometry" />
        </mxCell>
        <mxCell id="YZ7Jb5GtQvPE0JwR_sXS-3" value="" style="endArrow=classic;html=1;rounded=0;" edge="1" parent="1">
          <mxGeometry width="50" height="50" relative="1" as="geometry">
            <mxPoint x="25.5" y="329.40999999999985" as="sourcePoint" />
            <mxPoint x="240" y="329" as="targetPoint" />
          </mxGeometry>
        </mxCell>
        <mxCell id="YZ7Jb5GtQvPE0JwR_sXS-4" value="" style="endArrow=classic;html=1;rounded=0;exitX=1.002;exitY=0.499;exitDx=0;exitDy=0;exitPerimeter=0;" edge="1" parent="1" source="YZ7Jb5GtQvPE0JwR_sXS-2">
          <mxGeometry width="50" height="50" relative="1" as="geometry">
            <mxPoint x="492" y="318.5" as="sourcePoint" />
            <mxPoint x="645" y="320" as="targetPoint" />
            <Array as="points" />
          </mxGeometry>
        </mxCell>
        <mxCell id="YZ7Jb5GtQvPE0JwR_sXS-5" value="" style="endArrow=classic;html=1;rounded=0;" edge="1" parent="1">
          <mxGeometry width="50" height="50" relative="1" as="geometry">
            <mxPoint x="362" y="590" as="sourcePoint" />
            <mxPoint x="362" y="400" as="targetPoint" />
          </mxGeometry>
        </mxCell>
        <mxCell id="YZ7Jb5GtQvPE0JwR_sXS-6" value="книги для подготовки&amp;nbsp;" style="text;html=1;align=center;verticalAlign=middle;resizable=0;points=[];autosize=1;strokeColor=none;fillColor=none;" vertex="1" parent="1">
          <mxGeometry x="354" y="160" width="140" height="30" as="geometry" />
        </mxCell>
        <mxCell id="YZ7Jb5GtQvPE0JwR_sXS-7" value="Задачи экзамена" style="text;html=1;align=center;verticalAlign=middle;resizable=0;points=[];autosize=1;strokeColor=none;fillColor=none;" vertex="1" parent="1">
          <mxGeometry x="354" y="190" width="120" height="30" as="geometry" />
        </mxCell>
        <mxCell id="YZ7Jb5GtQvPE0JwR_sXS-8" value="сдача и получение &lt;br&gt;отличной оценки&amp;nbsp;&amp;nbsp;" style="text;html=1;align=center;verticalAlign=middle;resizable=0;points=[];autosize=1;strokeColor=none;fillColor=none;" vertex="1" parent="1">
          <mxGeometry x="637" y="295" width="130" height="40" as="geometry" />
        </mxCell>
        <mxCell id="YZ7Jb5GtQvPE0JwR_sXS-9" value="подготовка&amp;nbsp; экзамен" style="text;html=1;align=center;verticalAlign=middle;resizable=0;points=[];autosize=1;strokeColor=none;fillColor=none;" vertex="1" parent="1">
          <mxGeometry x="302" y="310" width="140" height="30" as="geometry" />
        </mxCell>
        <mxCell id="YZ7Jb5GtQvPE0JwR_sXS-10" value="Ученик" style="text;html=1;align=center;verticalAlign=middle;resizable=0;points=[];autosize=1;strokeColor=none;fillColor=none;" vertex="1" parent="1">
          <mxGeometry x="62" y="300" width="60" height="30" as="geometry" />
        </mxCell>
        <mxCell id="YZ7Jb5GtQvPE0JwR_sXS-11" value="Цель:определить действия им, необходимые&amp;nbsp;&lt;br&gt;для сдачи экзамена&amp;nbsp;" style="text;html=1;align=center;verticalAlign=middle;resizable=0;points=[];autosize=1;strokeColor=none;fillColor=none;" vertex="1" parent="1">
          <mxGeometry x="62" y="430" width="280" height="40" as="geometry" />
        </mxCell>
        <mxCell id="YZ7Jb5GtQvPE0JwR_sXS-12" value="Точка зрения: Ученика здавающий экзамен&amp;nbsp;" style="text;html=1;align=center;verticalAlign=middle;resizable=0;points=[];autosize=1;strokeColor=none;fillColor=none;" vertex="1" parent="1">
          <mxGeometry x="62" y="480" width="270" height="30" as="geometry" />
        </mxCell>
        <mxCell id="YZ7Jb5GtQvPE0JwR_sXS-13" value="комиссия" style="text;html=1;align=center;verticalAlign=middle;resizable=0;points=[];autosize=1;strokeColor=none;fillColor=none;" vertex="1" parent="1">
          <mxGeometry x="354" y="460" width="80" height="30" as="geometry" />
        </mxCell>
      </root>
    </mxGraphModel>
  </diagram>
  <diagram id="doZpnt-R-iUy-JwLdH4n" name="Страница 3">
    <mxGraphModel dx="1434" dy="836" grid="1" gridSize="10" guides="1" tooltips="1" connect="1" arrows="1" fold="1" page="1" pageScale="1" pageWidth="827" pageHeight="1169" math="0" shadow="0">
      <root>
        <mxCell id="0" />
        <mxCell id="1" parent="0" />
        <mxCell id="Q1O5e5ykcZtClISVTu7J-1" value="книги для&amp;nbsp;&lt;br&gt;подготовки&amp;nbsp;" style="text;html=1;align=center;verticalAlign=middle;resizable=0;points=[];autosize=1;strokeColor=none;fillColor=none;" vertex="1" parent="1">
          <mxGeometry x="49" y="215" width="90" height="40" as="geometry" />
        </mxCell>
        <mxCell id="Q1O5e5ykcZtClISVTu7J-2" value="учеба" style="rounded=0;whiteSpace=wrap;html=1;" vertex="1" parent="1">
          <mxGeometry x="144" y="220" width="100" height="50" as="geometry" />
        </mxCell>
        <mxCell id="Q1O5e5ykcZtClISVTu7J-3" value="сдача устного экзамена&amp;nbsp;" style="rounded=0;whiteSpace=wrap;html=1;" vertex="1" parent="1">
          <mxGeometry x="284" y="300" width="90" height="40" as="geometry" />
        </mxCell>
        <mxCell id="Q1O5e5ykcZtClISVTu7J-4" value="сдача на автомобиле&amp;nbsp;" style="rounded=0;whiteSpace=wrap;html=1;" vertex="1" parent="1">
          <mxGeometry x="408" y="350" width="80" height="40" as="geometry" />
        </mxCell>
        <mxCell id="Q1O5e5ykcZtClISVTu7J-5" value="сдать" style="rounded=0;whiteSpace=wrap;html=1;" vertex="1" parent="1">
          <mxGeometry x="524" y="410" width="90" height="40" as="geometry" />
        </mxCell>
        <mxCell id="Q1O5e5ykcZtClISVTu7J-6" value="" style="endArrow=none;html=1;rounded=0;" edge="1" parent="1">
          <mxGeometry width="50" height="50" relative="1" as="geometry">
            <mxPoint x="54" y="440" as="sourcePoint" />
            <mxPoint x="54" y="250" as="targetPoint" />
          </mxGeometry>
        </mxCell>
        <mxCell id="Q1O5e5ykcZtClISVTu7J-7" value="" style="endArrow=classic;html=1;rounded=0;entryX=0;entryY=0.6;entryDx=0;entryDy=0;entryPerimeter=0;" edge="1" parent="1" target="Q1O5e5ykcZtClISVTu7J-2">
          <mxGeometry width="50" height="50" relative="1" as="geometry">
            <mxPoint x="34" y="250" as="sourcePoint" />
            <mxPoint x="104" y="200" as="targetPoint" />
          </mxGeometry>
        </mxCell>
        <mxCell id="Q1O5e5ykcZtClISVTu7J-8" value="" style="endArrow=classic;html=1;rounded=0;entryX=0;entryY=0.75;entryDx=0;entryDy=0;" edge="1" parent="1" target="Q1O5e5ykcZtClISVTu7J-3">
          <mxGeometry width="50" height="50" relative="1" as="geometry">
            <mxPoint x="54" y="330" as="sourcePoint" />
            <mxPoint x="254" y="330" as="targetPoint" />
            <Array as="points">
              <mxPoint x="54" y="330" />
            </Array>
          </mxGeometry>
        </mxCell>
        <mxCell id="Q1O5e5ykcZtClISVTu7J-9" value="" style="endArrow=classic;html=1;rounded=0;exitX=1;exitY=0.6;exitDx=0;exitDy=0;exitPerimeter=0;entryX=0;entryY=0.25;entryDx=0;entryDy=0;" edge="1" parent="1" source="Q1O5e5ykcZtClISVTu7J-2" target="Q1O5e5ykcZtClISVTu7J-3">
          <mxGeometry width="50" height="50" relative="1" as="geometry">
            <mxPoint x="274" y="240" as="sourcePoint" />
            <mxPoint x="264" y="310" as="targetPoint" />
            <Array as="points">
              <mxPoint x="264" y="250" />
              <mxPoint x="264" y="310" />
            </Array>
          </mxGeometry>
        </mxCell>
        <mxCell id="Q1O5e5ykcZtClISVTu7J-10" value="" style="endArrow=classic;html=1;rounded=0;exitX=1.011;exitY=0.378;exitDx=0;exitDy=0;exitPerimeter=0;entryX=0;entryY=0.5;entryDx=0;entryDy=0;" edge="1" parent="1" source="Q1O5e5ykcZtClISVTu7J-3" target="Q1O5e5ykcZtClISVTu7J-4">
          <mxGeometry width="50" height="50" relative="1" as="geometry">
            <mxPoint x="394" y="320" as="sourcePoint" />
            <mxPoint x="404" y="370" as="targetPoint" />
            <Array as="points">
              <mxPoint x="394" y="315" />
              <mxPoint x="394" y="370" />
            </Array>
          </mxGeometry>
        </mxCell>
        <mxCell id="Q1O5e5ykcZtClISVTu7J-11" value="" style="endArrow=classic;html=1;rounded=0;" edge="1" parent="1">
          <mxGeometry width="50" height="50" relative="1" as="geometry">
            <mxPoint x="334" y="510" as="sourcePoint" />
            <mxPoint x="334" y="340" as="targetPoint" />
          </mxGeometry>
        </mxCell>
        <mxCell id="Q1O5e5ykcZtClISVTu7J-12" value="" style="endArrow=classic;html=1;rounded=0;" edge="1" parent="1">
          <mxGeometry width="50" height="50" relative="1" as="geometry">
            <mxPoint x="54" y="380" as="sourcePoint" />
            <mxPoint x="408" y="380" as="targetPoint" />
          </mxGeometry>
        </mxCell>
        <mxCell id="Q1O5e5ykcZtClISVTu7J-13" value="" style="endArrow=classic;html=1;rounded=0;entryX=0.5;entryY=1;entryDx=0;entryDy=0;" edge="1" parent="1" target="Q1O5e5ykcZtClISVTu7J-2">
          <mxGeometry width="50" height="50" relative="1" as="geometry">
            <mxPoint x="194" y="500" as="sourcePoint" />
            <mxPoint x="199" y="270" as="targetPoint" />
          </mxGeometry>
        </mxCell>
        <mxCell id="Q1O5e5ykcZtClISVTu7J-14" value="" style="endArrow=classic;html=1;rounded=0;entryX=0;entryY=0.75;entryDx=0;entryDy=0;" edge="1" parent="1" target="Q1O5e5ykcZtClISVTu7J-5">
          <mxGeometry width="50" height="50" relative="1" as="geometry">
            <mxPoint x="54" y="440" as="sourcePoint" />
            <mxPoint x="384" y="440" as="targetPoint" />
          </mxGeometry>
        </mxCell>
        <mxCell id="Q1O5e5ykcZtClISVTu7J-15" value="" style="endArrow=classic;html=1;rounded=0;entryX=0;entryY=0.25;entryDx=0;entryDy=0;" edge="1" parent="1" target="Q1O5e5ykcZtClISVTu7J-5">
          <mxGeometry width="50" height="50" relative="1" as="geometry">
            <mxPoint x="488" y="370" as="sourcePoint" />
            <mxPoint x="504" y="420" as="targetPoint" />
            <Array as="points">
              <mxPoint x="514" y="370" />
              <mxPoint x="514" y="420" />
            </Array>
          </mxGeometry>
        </mxCell>
        <mxCell id="Q1O5e5ykcZtClISVTu7J-16" value="" style="endArrow=classic;html=1;rounded=0;entryX=0.5;entryY=0;entryDx=0;entryDy=0;" edge="1" parent="1" target="Q1O5e5ykcZtClISVTu7J-2">
          <mxGeometry width="50" height="50" relative="1" as="geometry">
            <mxPoint x="564" y="170" as="sourcePoint" />
            <mxPoint x="194" y="170" as="targetPoint" />
            <Array as="points">
              <mxPoint x="194" y="170" />
            </Array>
          </mxGeometry>
        </mxCell>
        <mxCell id="Q1O5e5ykcZtClISVTu7J-17" value="" style="endArrow=classic;html=1;rounded=0;entryX=0.5;entryY=0;entryDx=0;entryDy=0;" edge="1" parent="1" target="Q1O5e5ykcZtClISVTu7J-3">
          <mxGeometry width="50" height="50" relative="1" as="geometry">
            <mxPoint x="329" y="170" as="sourcePoint" />
            <mxPoint x="374" y="290" as="targetPoint" />
          </mxGeometry>
        </mxCell>
        <mxCell id="Q1O5e5ykcZtClISVTu7J-18" value="" style="endArrow=classic;html=1;rounded=0;entryX=0.581;entryY=-0.053;entryDx=0;entryDy=0;entryPerimeter=0;" edge="1" parent="1" target="Q1O5e5ykcZtClISVTu7J-4">
          <mxGeometry width="50" height="50" relative="1" as="geometry">
            <mxPoint x="454" y="170" as="sourcePoint" />
            <mxPoint x="454" y="330" as="targetPoint" />
          </mxGeometry>
        </mxCell>
        <mxCell id="Q1O5e5ykcZtClISVTu7J-19" value="" style="endArrow=classic;html=1;rounded=0;entryX=0.456;entryY=0.017;entryDx=0;entryDy=0;entryPerimeter=0;" edge="1" parent="1" target="Q1O5e5ykcZtClISVTu7J-5">
          <mxGeometry width="50" height="50" relative="1" as="geometry">
            <mxPoint x="564" y="170" as="sourcePoint" />
            <mxPoint x="564" y="290" as="targetPoint" />
          </mxGeometry>
        </mxCell>
        <mxCell id="Q1O5e5ykcZtClISVTu7J-20" value="" style="endArrow=classic;html=1;rounded=0;" edge="1" parent="1">
          <mxGeometry width="50" height="50" relative="1" as="geometry">
            <mxPoint x="614" y="430" as="sourcePoint" />
            <mxPoint x="674" y="430" as="targetPoint" />
          </mxGeometry>
        </mxCell>
        <mxCell id="Q1O5e5ykcZtClISVTu7J-21" value="" style="endArrow=none;html=1;rounded=0;startArrow=none;" edge="1" parent="1">
          <mxGeometry width="50" height="50" relative="1" as="geometry">
            <mxPoint x="334" y="500" as="sourcePoint" />
            <mxPoint x="574" y="500" as="targetPoint" />
          </mxGeometry>
        </mxCell>
        <mxCell id="Q1O5e5ykcZtClISVTu7J-22" value="" style="endArrow=classic;html=1;rounded=0;" edge="1" parent="1">
          <mxGeometry width="50" height="50" relative="1" as="geometry">
            <mxPoint x="448" y="500" as="sourcePoint" />
            <mxPoint x="448" y="390" as="targetPoint" />
          </mxGeometry>
        </mxCell>
        <mxCell id="Q1O5e5ykcZtClISVTu7J-23" value="" style="endArrow=classic;html=1;rounded=0;" edge="1" parent="1">
          <mxGeometry width="50" height="50" relative="1" as="geometry">
            <mxPoint x="574" y="500" as="sourcePoint" />
            <mxPoint x="574" y="450" as="targetPoint" />
          </mxGeometry>
        </mxCell>
        <mxCell id="Q1O5e5ykcZtClISVTu7J-24" value="экзаменатор&amp;nbsp;" style="text;html=1;align=center;verticalAlign=middle;resizable=0;points=[];autosize=1;strokeColor=none;fillColor=none;" vertex="1" parent="1">
          <mxGeometry x="244" y="470" width="100" height="30" as="geometry" />
        </mxCell>
        <mxCell id="Q1O5e5ykcZtClISVTu7J-25" value="учитель" style="text;html=1;align=center;verticalAlign=middle;resizable=0;points=[];autosize=1;strokeColor=none;fillColor=none;" vertex="1" parent="1">
          <mxGeometry x="130" y="470" width="70" height="30" as="geometry" />
        </mxCell>
        <mxCell id="Q1O5e5ykcZtClISVTu7J-26" value="" style="endArrow=none;html=1;rounded=0;" edge="1" parent="1">
          <mxGeometry width="50" height="50" relative="1" as="geometry">
            <mxPoint x="194" y="500" as="sourcePoint" />
            <mxPoint x="334" y="500" as="targetPoint" />
          </mxGeometry>
        </mxCell>
        <mxCell id="Q1O5e5ykcZtClISVTu7J-27" value="сотрудник гиббд" style="text;html=1;align=center;verticalAlign=middle;resizable=0;points=[];autosize=1;strokeColor=none;fillColor=none;" vertex="1" parent="1">
          <mxGeometry x="344" y="470" width="110" height="30" as="geometry" />
        </mxCell>
        <mxCell id="Q1O5e5ykcZtClISVTu7J-28" value="знания&amp;nbsp;" style="text;html=1;align=center;verticalAlign=middle;resizable=0;points=[];autosize=1;strokeColor=none;fillColor=none;" vertex="1" parent="1">
          <mxGeometry x="254" y="225" width="70" height="30" as="geometry" />
        </mxCell>
        <mxCell id="Q1O5e5ykcZtClISVTu7J-29" value="прохождение &lt;br&gt;до автомобиля&amp;nbsp;" style="text;html=1;align=center;verticalAlign=middle;resizable=0;points=[];autosize=1;strokeColor=none;fillColor=none;" vertex="1" parent="1">
          <mxGeometry x="330" y="260" width="110" height="40" as="geometry" />
        </mxCell>
        <mxCell id="Q1O5e5ykcZtClISVTu7J-30" value="получение&lt;br&gt;&lt;font&gt;прав&amp;nbsp;&lt;/font&gt;" style="text;html=1;align=center;verticalAlign=middle;resizable=0;points=[];autosize=1;strokeColor=none;fillColor=none;" vertex="1" parent="1">
          <mxGeometry x="610" y="390" width="80" height="40" as="geometry" />
        </mxCell>
        <mxCell id="Q1O5e5ykcZtClISVTu7J-31" value="получение &lt;br&gt;результатов&amp;nbsp;" style="text;html=1;align=center;verticalAlign=middle;resizable=0;points=[];autosize=1;strokeColor=none;fillColor=none;" vertex="1" parent="1">
          <mxGeometry x="460" y="310" width="90" height="40" as="geometry" />
        </mxCell>
        <mxCell id="Q1O5e5ykcZtClISVTu7J-32" value="сотрудник в гаи" style="text;html=1;align=center;verticalAlign=middle;resizable=0;points=[];autosize=1;strokeColor=none;fillColor=none;" vertex="1" parent="1">
          <mxGeometry x="470" y="470" width="110" height="30" as="geometry" />
        </mxCell>
      </root>
    </mxGraphModel>
  </diagram>
  <diagram id="0PYO07s4yxpQkBg-8zem" name="Страница 4">
    <mxGraphModel dx="1434" dy="836" grid="1" gridSize="10" guides="1" tooltips="1" connect="1" arrows="1" fold="1" page="1" pageScale="1" pageWidth="827" pageHeight="1169" math="0" shadow="0">
      <root>
        <mxCell id="0" />
        <mxCell id="1" parent="0" />
      </root>
    </mxGraphModel>
  </diagram>
</mxfile>
